<svg preserveAspectRatio="none" overflow="visible" style="display: block;" width="250.173" height="71.2461" viewBox="0 0 250.173 71.2461" fill="none" xmlns="http://www.w3.org/2000/svg">
<g id="Frame" clip-path="url(#clip0_0_47)">
<path id="Vector" d="M248.908 63.7366C250.059 67.4537 247.266 71.2273 243.379 71.2273H230.247L223.209 48.3968C221.492 42.8118 224.322 37.1703 229.19 34.925L228.813 33.7174C222.398 32.7929 216.983 28.2456 215.039 21.9248L208.266 0H224.153C227.172 0 229.851 1.96229 230.738 4.86798L236.002 21.9248C237.945 28.2456 243.379 32.7929 249.776 33.7174L250.153 34.925C245.285 37.1891 242.436 42.8307 244.172 48.3968L248.908 63.7366Z" fill="white"/>
<path id="Vector_2" d="M204.458 35.9061L204.062 37.1325C203.911 37.5853 203.496 37.8872 203.043 37.8872H198.93L199.326 36.6608C199.477 36.2268 199.892 35.9061 200.345 35.9061H204.458Z" fill="white"/>
<path id="Vector_3" d="M72.0205 30.9246C71.0016 30.0189 70.4922 28.5661 70.4922 26.5472V17.8301H73.4168V26.717C73.4168 27.6604 73.6432 28.3774 74.1149 28.8302C74.5866 29.283 75.1904 29.5095 75.9262 29.5095C76.6621 29.5095 77.2659 29.283 77.7376 28.8113C78.2093 28.3585 78.4357 27.6415 78.4357 26.717V17.8301H81.3602V26.5283C81.3602 28.5472 80.8508 30 79.8508 30.9057C78.8319 31.8114 77.53 32.2642 75.9451 32.2642C74.3602 32.2831 73.0583 31.8302 72.0205 30.9246Z" fill="white"/>
<path id="Vector_4" d="M84.5859 17.8301H87.3784L93.3596 26.7925V17.8301H96.2842V32.0944H93.5106L87.5105 23.1132V32.0944H84.5859V17.8301Z" fill="white"/>
<path id="Vector_5" d="M102.698 17.8301H99.7734V32.0944H102.698V17.8301Z" fill="white"/>
<path id="Vector_6" d="M104.586 17.8301H107.68L110.756 28.4717L113.794 17.8301H116.888L112.548 32.0944H108.907L104.586 17.8301Z" fill="white"/>
<path id="Vector_7" d="M118.547 17.8301H126.905V20.5282H121.471V23.6037H126.264V26.1698H121.471V29.4151H126.905V32.0944H118.547V17.8301Z" fill="white"/>
<path id="Vector_8" d="M130.059 17.8301H134.945C136.455 17.8301 137.681 18.2074 138.644 18.9622C139.587 19.7169 140.078 20.8301 140.078 22.3207C140.078 23.3207 139.832 24.1698 139.323 24.8679C138.813 25.566 138.134 26.0755 137.266 26.4151L140.644 32.0944H137.361L134.304 26.8491H132.983V32.0944H130.059V17.8301ZM134.889 24.2075C135.568 24.2075 136.115 24.0377 136.511 23.7169C136.908 23.3962 137.115 22.9245 137.115 22.3396C137.115 21.7358 136.927 21.283 136.511 20.9811C136.115 20.6792 135.568 20.5094 134.889 20.5094H132.983V24.2075H134.889Z" fill="white"/>
<path id="Vector_9" d="M143.89 31.1891C142.984 30.4532 142.418 29.4909 142.191 28.2645L145.022 27.7173C145.116 28.3777 145.399 28.8872 145.871 29.2268C146.342 29.5664 146.852 29.7551 147.437 29.7551C148.003 29.7551 148.493 29.5853 148.908 29.2457C149.305 28.906 149.512 28.4721 149.512 27.9626C149.512 27.5287 149.361 27.189 149.059 26.9249C148.758 26.6607 148.305 26.4343 147.682 26.2456L145.493 25.5852C144.493 25.2833 143.739 24.8305 143.21 24.2079C142.701 23.6041 142.437 22.8493 142.437 21.9437C142.437 21.2267 142.606 20.5663 142.965 19.9059C143.323 19.2455 143.852 18.7172 144.588 18.3021C145.324 17.887 146.191 17.6795 147.229 17.6795C148.21 17.6795 149.041 17.8493 149.758 18.1889C150.456 18.5285 151.022 18.9814 151.418 19.5474C151.814 20.1135 152.078 20.7361 152.21 21.4154L149.418 21.9437C149.361 21.3776 149.135 20.9437 148.758 20.6418C148.38 20.3399 147.89 20.1889 147.305 20.1889C146.739 20.1889 146.267 20.3399 145.908 20.6229C145.55 20.9248 145.361 21.2833 145.361 21.7173C145.361 22.4342 145.852 22.9248 146.833 23.2267L148.871 23.8305C151.267 24.5664 152.475 25.906 152.475 27.8871C152.475 28.623 152.305 29.34 151.946 30.0004C151.607 30.6608 151.041 31.2079 150.286 31.6419C149.531 32.0759 148.569 32.2834 147.399 32.2834C145.984 32.2834 144.814 31.9249 143.89 31.1891Z" fill="white"/>
<path id="Vector_10" d="M157.796 17.8301H154.871V32.0944H157.796V17.8301Z" fill="white"/>
<path id="Vector_11" d="M182.419 29.7548H177.25L176.57 32.0944H173.57L177.967 17.8301H181.74L186.137 32.0944H183.136L182.419 29.7548ZM181.702 27.2076L179.853 20.9245L178.004 27.2076H181.702Z" fill="white"/>
<path id="Vector_12" d="M136.531 39.2461H144.89V41.9254H139.456V45.0198H144.248V47.5858H139.456V50.8123H144.89V53.5104H136.531V39.2461Z" fill="white"/>
<path id="Vector_13" d="M147.492 39.2461H150.417V50.7557H155.851V53.5104H147.492V39.2461Z" fill="white"/>
<path id="Vector_14" d="M160.664 39.2461H165.419C166.985 39.2461 168.268 39.6235 169.268 40.3782C170.249 41.1329 170.74 42.2839 170.74 43.8311C170.74 44.8122 170.494 45.6613 170.023 46.3405C169.532 47.0198 168.891 47.5481 168.098 47.8877C167.287 48.2273 166.4 48.416 165.438 48.416H163.589V53.5293H160.664V39.2461ZM165.513 45.6801C166.192 45.6801 166.74 45.5103 167.136 45.1896C167.532 44.8688 167.74 44.3971 167.74 43.7933C167.74 43.1895 167.532 42.7367 167.136 42.4159C166.74 42.0952 166.192 41.9442 165.494 41.9442H163.589V45.6801H165.513Z" fill="white"/>
<path id="Vector_15" d="M172.871 39.2461H181.23V41.9254H175.796V45.0198H180.588V47.5858H175.796V50.8123H181.23V53.5104H172.871V39.2461Z" fill="white"/>
<path id="Vector_16" d="M183.812 39.2461H188.68C190.19 39.2461 191.416 39.6235 192.379 40.3782C193.322 41.1329 193.813 42.2461 193.813 43.7367C193.813 44.7367 193.567 45.5858 193.058 46.2839C192.548 46.982 191.869 47.4915 191.001 47.8311L194.379 53.5104H191.114L188.058 48.2651H186.737V53.5104H183.812V39.2461ZM188.624 45.6235C189.303 45.6235 189.85 45.4537 190.247 45.133C190.643 44.8122 190.85 44.3405 190.85 43.7556C190.85 43.1518 190.662 42.699 190.247 42.3971C189.85 42.0952 189.303 41.9254 188.624 41.9254H186.718V45.6235H188.624Z" fill="white"/>
<path id="Vector_17" d="M197.513 52.3217C196.494 51.4161 195.984 49.9632 195.984 47.9443V39.2461H198.909V48.133C198.909 49.0764 199.135 49.7934 199.607 50.2462C200.079 50.6991 200.683 50.9255 201.418 50.9255C202.154 50.9255 202.758 50.6991 203.23 50.2274C203.683 49.7745 203.928 49.0575 203.928 48.133V39.2461H206.852V47.9443C206.852 49.9632 206.343 51.4161 205.343 52.3217C204.324 53.2274 203.022 53.6802 201.437 53.6802C199.833 53.6802 198.532 53.2274 197.513 52.3217Z" fill="white"/>
<path id="Vector_18" d="M121.793 39.2461H126.133C127.661 39.2461 129.038 39.5291 130.265 40.114C131.491 40.6801 132.435 41.5103 133.133 42.5858C133.831 43.6612 134.17 44.9254 134.17 46.3783C134.17 47.85 133.812 49.133 133.114 50.2085C132.397 51.284 131.435 52.0953 130.227 52.6614C129.019 53.2274 127.642 53.5104 126.133 53.5104L124.718 53.5293H121.793V39.2461ZM126.416 50.7368C127.34 50.7368 128.17 50.5481 128.887 50.1708C129.623 49.7934 130.17 49.284 130.586 48.6236C131.001 47.9632 131.189 47.2085 131.189 46.3594C131.189 45.5103 130.982 44.7556 130.586 44.0763C130.189 43.416 129.623 42.8877 128.887 42.5292C128.17 42.1518 127.34 41.9631 126.416 41.9631H124.718V50.7179H126.416V50.7368Z" fill="white"/>
<path id="Vector_19" d="M47.3385 37.1325L47.7347 35.9061H43.6026C43.1309 35.9061 42.7158 36.208 42.5837 36.6608L42.1875 37.8873H46.3196C46.7725 37.8684 47.1876 37.5665 47.3385 37.1325Z" fill="white"/>
<path id="Vector_20" d="M48.416 39.9627C47.265 39.3401 46.0008 39.0193 44.6046 39.0193C43.2084 39.0193 41.9442 39.3401 40.8121 39.9627C39.68 40.5854 38.7743 41.4533 38.114 42.5665C37.4536 43.6798 37.1328 44.9439 37.1328 46.3402C37.1328 47.7741 37.4724 49.0572 38.1328 50.1893C38.7932 51.3214 39.6989 52.1704 40.8498 52.7742C41.9819 53.378 43.2461 53.6987 44.6046 53.6987C45.982 53.6987 47.2461 53.3969 48.3782 52.7742C49.5292 52.1704 50.4349 51.3025 51.0952 50.1893C51.7556 49.076 52.1141 47.793 52.1141 46.3402C52.1141 44.9439 51.7745 43.6798 51.1141 42.5665C50.4537 41.4533 49.5481 40.5854 48.416 39.9627ZM48.5103 48.7175C48.1141 49.4157 47.5858 49.9628 46.9065 50.3591C46.2273 50.7553 45.4537 50.9629 44.6046 50.9629C43.7555 50.9629 42.9819 50.7742 42.3027 50.3591C41.6234 49.9628 41.0763 49.4157 40.6989 48.7175C40.3027 48.0194 40.114 47.227 40.114 46.3402C40.114 45.4722 40.3027 44.6986 40.6989 44.0005C41.0951 43.3024 41.6234 42.7552 42.3027 42.359C42.9819 41.9628 43.7555 41.7552 44.6046 41.7552C45.4537 41.7552 46.2084 41.9439 46.8876 42.359C47.5669 42.7552 48.1141 43.3024 48.5103 44.0005C48.9065 44.6986 49.0952 45.4722 49.0952 46.3402C49.0952 47.2081 48.9065 48.0006 48.5103 48.7175Z" fill="white"/>
<path id="Vector_21" d="M21.8881 48.1135C21.8881 49.0569 21.6617 49.755 21.19 50.2267C20.7183 50.6984 20.1145 50.9248 19.3787 50.9248C18.6428 50.9248 18.0202 50.6984 17.5485 50.2456C17.0768 49.7927 16.8503 49.0757 16.8503 48.1323V39.2266H13.9258V47.9436C13.9258 49.9625 14.4352 51.4154 15.473 52.3399C16.4918 53.2456 17.8126 53.6984 19.4164 53.6984C21.0013 53.6984 22.3032 53.2456 23.3221 52.3399C24.341 51.4343 24.8504 49.9625 24.8504 47.9436V39.2266H21.8881V48.1135Z" fill="white"/>
<path id="Vector_22" d="M4.39628 39.207L0 53.5091H3.00004L3.67929 51.1694H8.86803L9.56615 53.5091H12.5662L8.16991 39.207H4.39628ZM4.43402 48.6034L6.28309 42.3014L8.13217 48.6034H4.43402Z" fill="white"/>
<path id="Vector_23" d="M63.191 48.1902L57.2098 39.209H54.3984V53.511H57.323V44.5109L63.3419 53.511H66.1344V39.209H63.191V48.1902Z" fill="white"/>
<path id="Vector_24" d="M79.7363 39.9627C78.5853 39.3401 77.3212 39.0193 75.9249 39.0193C74.5287 39.0193 73.2645 39.3401 72.1324 39.9627C71.0003 40.5854 70.0947 41.4533 69.4343 42.5665C68.7739 43.6798 68.4531 44.9439 68.4531 46.3402C68.4531 47.7741 68.7928 49.0572 69.4531 50.1893C70.1135 51.3214 71.0192 52.1704 72.1702 52.7742C73.3022 53.378 74.5664 53.6987 75.9249 53.6987C77.3023 53.6987 78.5665 53.3969 79.6986 52.7742C80.8495 52.1704 81.7552 51.3025 82.4156 50.1893C83.0759 49.076 83.4344 47.793 83.4344 46.3402C83.4344 44.9439 83.0948 43.6798 82.4344 42.5665C81.774 41.4533 80.8684 40.5854 79.7363 39.9627ZM79.8306 48.7175C79.4344 49.4157 78.9061 49.9628 78.2268 50.3591C77.5476 50.7553 76.774 50.9629 75.9249 50.9629C75.0759 50.9629 74.3023 50.7742 73.623 50.3591C72.9437 49.9628 72.3966 49.4157 72.0192 48.7175C71.623 48.0194 71.4343 47.227 71.4343 46.3402C71.4343 45.4722 71.623 44.6986 72.0192 44.0005C72.4154 43.3024 72.9437 42.7552 73.623 42.359C74.3023 41.9628 75.0759 41.7552 75.9249 41.7552C76.774 41.7552 77.5287 41.9439 78.208 42.359C78.8872 42.7552 79.4344 43.3024 79.8306 44.0005C80.2269 44.6986 80.4155 45.4722 80.4155 46.3402C80.4155 47.2081 80.2269 48.0006 79.8306 48.7175Z" fill="white"/>
<path id="Vector_25" d="M93.3245 48.7185L89.249 39.209H85.6641V53.511H88.5886V44.2468L92.6075 53.511H93.9849L98.0227 44.0958V53.511H100.947V39.209H97.3434L93.3245 48.7185Z" fill="white"/>
<path id="Vector_26" d="M111.057 39.209H107.283L102.887 53.511H105.887L106.566 51.1714H111.755L112.453 53.511H115.453L111.057 39.209ZM107.321 48.6053L109.17 42.3034L111.019 48.6053H107.321Z" fill="white"/>
<path id="Vector_27" d="M26.793 41.9826H31.7742V42.2468C30.9817 42.643 30.4534 43.4355 30.4534 44.3789V53.511H33.378V43.3411V42.0015V41.9826H37.0384V39.209H26.793V41.9826Z" fill="white"/>
<path id="Vector_28" d="M161.098 17.8301H165.437C166.966 17.8301 168.343 18.1131 169.569 18.698C170.796 19.2641 171.739 20.0943 172.437 21.1697C173.136 22.2452 173.475 23.5094 173.475 24.9622C173.475 26.434 173.117 27.717 172.419 28.7925C171.702 29.868 170.739 30.6793 169.532 31.2453C168.324 31.8114 166.947 32.0755 165.437 32.0755L164.022 32.0944H161.098V17.8301ZM165.72 29.3397C166.645 29.3397 167.475 29.151 168.192 28.7736C168.928 28.3962 169.475 27.8868 169.89 27.2264C170.305 26.566 170.494 25.8113 170.494 24.9622C170.494 24.1132 170.286 23.3584 169.89 22.6792C169.494 22.0188 168.928 21.4905 168.192 21.132C167.475 20.7546 166.645 20.5848 165.72 20.5848H164.022V29.3397H165.72Z" fill="white"/>
<path id="Vector_29" d="M188.531 17.8301H192.871C194.399 17.8301 195.777 18.1131 197.003 18.698C198.229 19.2641 199.173 20.0943 199.871 21.1697C200.569 22.2452 200.909 23.5094 200.909 24.9622C200.909 26.434 200.55 27.717 199.852 28.7925C199.135 29.868 198.173 30.6793 196.965 31.2453C195.758 31.8114 194.38 32.0755 192.871 32.0755L191.456 32.0944H188.531V17.8301ZM193.173 29.3397C194.097 29.3397 194.928 29.151 195.645 28.7736C196.38 28.3962 196.928 27.8868 197.343 27.2264C197.758 26.566 197.946 25.8113 197.946 24.9622C197.946 24.1132 197.739 23.3584 197.343 22.6792C196.946 22.0188 196.38 21.4905 195.645 21.132C194.928 20.7546 194.097 20.5848 193.173 20.5848H191.475V29.3397H193.173Z" fill="white"/>
</g>
<defs>
<clipPath id="clip0_0_47">
<rect width="250.173" height="71.2461" fill="white"/>
</clipPath>
</defs>
</svg>
