<svg width="32" height="32" viewBox="0 0 32 32" fill="none" xmlns="http://www.w3.org/2000/svg">
<g id="web - final -desktop">
<g id="modal pregrado">
<g id="Frame 4965">
<g id="Frame 4997">
<g id="Frame 4966">
<g id="Frame 4968">
<g id="Frame 4975">
<g id="school_10209011 1" clip-path="url(#clip0_15_2081)">
<g id="Group">
<g id="Group_2">
<g id="Group_3">
<path id="Vector" d="M29.466 25.6667H28.5327C27.5327 25.6667 26.666 24.6667 26.666 23.5334V7.33341L28.9993 2.66675L31.3327 7.33341V23.5334C31.3327 24.6667 30.5327 25.6667 29.466 25.6667Z" stroke="#FF6600" stroke-width="2" stroke-miterlimit="10" stroke-linecap="round" stroke-linejoin="round"/>
<path id="Vector_2" d="M29 9.93335V23.2667" stroke="#FF6600" stroke-width="2" stroke-miterlimit="10" stroke-linecap="round" stroke-linejoin="round"/>
<path id="Vector_3" d="M28.9993 29.3335C27.7327 29.3335 26.666 28.2668 26.666 27.0001V7.4668H31.3327V27.0001C31.3327 28.2668 30.266 29.3335 28.9993 29.3335Z" stroke="#FF6600" stroke-width="2" stroke-miterlimit="10" stroke-linecap="round" stroke-linejoin="round"/>
</g>
</g>
<g id="Group_4">
<g id="Group_5">
<g id="Group_6">
<path id="Vector_4" d="M6.73268 13.5332L7.26602 14.6665C8.59935 17.6665 7.53268 21.1332 4.79935 22.8665L3.66602 23.5999" stroke="#FF6600" stroke-width="2" stroke-miterlimit="10" stroke-linecap="round" stroke-linejoin="round"/>
<path id="Vector_5" d="M23.0669 22.9999C23.1336 22.9332 23.1336 22.7999 23.1336 22.7332C23.1336 22.3332 22.667 21.9332 22.267 21.9332C21.7336 21.9332 21.2003 22.1999 20.7336 22.4666C19.6669 22.9999 18.2669 23.1999 17.5336 22.2666C17.0669 21.7332 17.0003 20.9332 17.2003 20.1999C17.3336 19.7332 17.5336 19.1999 17.8003 18.7999C18.0669 18.3999 18.4003 17.9999 18.5336 17.5999C18.7336 17.1332 18.7336 16.5999 18.4003 16.1999C17.4669 16.1332 16.6003 16.0666 15.6669 16.0666C15.2003 16.0666 14.7336 15.9999 14.4669 15.6666C14.1336 15.3332 14.2669 14.7332 14.4669 14.3332C14.6669 13.9332 15.0003 13.5332 15.2003 13.0666C15.2669 12.8666 15.3336 12.6666 15.2669 12.4666" stroke="#FF6600" stroke-width="2" stroke-miterlimit="10" stroke-linecap="round" stroke-linejoin="round"/>
<path id="Vector_6" d="M10.6671 21.3333C11.0004 21.2666 12.9337 21.1999 13.1337 21.3999C13.3337 21.5999 13.3337 21.9999 13.3337 22.3333C13.3337 22.7999 12.7337 23.2666 13.0004 23.5999C13.2004 23.8666 12.7337 24.8666 12.7337 25.1999C12.7337 25.5999 12.4004 25.8666 12.0671 26.0666C11.8004 26.1999 10.8004 25.5333 10.4671 25.5999C10.2004 25.5999 9.86705 25.4666 9.73372 25.2666C9.66705 25.1333 9.66705 25.0666 9.66705 24.9333C9.60039 23.9999 10.2671 23.1333 10.1337 22.1999C10.1337 21.9333 10.0671 21.5999 10.3337 21.4666C10.4671 21.3999 10.6004 21.3333 10.6671 21.3333Z" stroke="#FF6600" stroke-width="2" stroke-miterlimit="10" stroke-linecap="round" stroke-linejoin="round"/>
<path id="Vector_7" d="M4.3336 12.1333C1.9336 15.5333 1.66693 20 3.60027 23.6C4.06693 24.5333 4.7336 25.3333 5.46693 26.1333C9.7336 30.4 16.6003 30.4 20.8003 26.1333C21.8003 25.1333 22.6003 23.9333 23.1336 22.6666C24.6003 19.2666 24.2003 15.2666 22.0003 12.2" stroke="#FF6600" stroke-width="2" stroke-miterlimit="10" stroke-linecap="round" stroke-linejoin="round"/>
</g>
</g>
<g id="Group_7">
<path id="Vector_8" d="M23.666 6.06665V8.86665" stroke="#FF6600" stroke-width="2" stroke-miterlimit="10" stroke-linecap="round" stroke-linejoin="round"/>
<path id="Vector_9" d="M20.5993 10.8667V6.66675L13.1327 8.33341L5.66602 6.66675V10.8667C5.66602 13.0001 20.5993 13.0001 20.5993 10.8667Z" stroke="#FF6600" stroke-width="2" stroke-miterlimit="10" stroke-linecap="round" stroke-linejoin="round"/>
<path id="Vector_10" d="M13.1327 2.66675L0.666016 5.53341L13.1327 8.33341L25.5994 5.53341L13.1327 2.66675Z" stroke="#FF6600" stroke-width="2" stroke-miterlimit="10" stroke-linecap="round" stroke-linejoin="round"/>
</g>
</g>
</g>
</g>
</g>
</g>
</g>
</g>
</g>
</g>
</g>
<defs>
<clipPath id="clip0_15_2081">
<rect width="32" height="32" fill="white"/>
</clipPath>
</defs>
</svg>
