<svg preserveAspectRatio="none" overflow="visible" style="display: block;" width="178.549" height="47.8777" viewBox="0 0 178.549 47.8777" fill="none" xmlns="http://www.w3.org/2000/svg">
<g id="Group">
<path id="Vector" d="M47.8774 1.15629C47.8796 0.224624 47.6417 -0.00217778 46.7212 4.5762e-05C31.5321 0.0289519 16.3453 0.0311754 1.15848 4.5762e-05C0.242383 4.5762e-05 1.64529e-05 0.217953 1.64529e-05 1.14962C0.0311461 16.3364 0.0289226 31.5233 1.64529e-05 46.7123C-0.00220709 47.6284 0.220148 47.8797 1.15404 47.8752C8.70965 47.8352 16.2675 47.853 23.8231 47.853C31.4165 47.853 39.0099 47.833 46.6033 47.8774C47.6128 47.8841 47.8774 47.6262 47.8752 46.61C47.8441 31.4566 47.8441 16.3053 47.8774 1.15629ZM30.3737 35.7235C30.118 36.1015 29.6888 35.7347 29.3775 35.5901C27.065 34.5095 24.7392 33.4533 22.4645 32.2993C21.5417 31.8323 20.7613 31.7679 19.7607 32.1236C14.9067 33.8513 9.69245 31.5233 7.69349 26.8249C6.17036 23.2428 6.97083 18.9358 9.66577 16.2186C12.4674 13.3925 16.7211 12.5609 20.45 14.1084C23.9365 15.556 26.2846 19.1737 26.269 22.807C26.2868 24.8215 25.8332 26.4313 24.9349 27.9322C24.6458 28.417 24.4057 28.4748 24.0232 28.0723C23.872 27.9122 23.6897 27.7744 23.5051 27.6543C22.2333 26.8338 21.5751 26.0489 22.1955 24.2345C23.0893 21.6218 21.4906 18.8224 19.038 17.7328C16.4209 16.5721 13.4947 17.3637 11.8293 19.6829C10.2973 21.8175 10.4796 24.8726 12.2584 26.8716C14.1173 28.9617 17.1058 29.4887 19.5139 27.9745C20.4055 27.4141 20.8925 27.612 21.584 28.1879C24.3167 30.4604 27.0917 32.6773 29.84 34.932C30.0824 35.1365 30.6716 35.2833 30.3737 35.7235ZM40.6753 27.6988C40.1951 30.5916 37.9715 32.4194 34.783 32.5394C34.4138 32.5528 34.0425 32.5416 33.6712 32.5416C31.0118 32.5995 28.6682 31.71 26.538 30.1669C26.06 29.82 25.8532 29.5198 26.2579 28.9195C26.687 28.2836 27.005 27.5542 27.2674 26.8271C27.5164 26.1334 27.7565 26.0311 28.308 26.5625C29.5954 27.8033 31.1386 28.5659 32.9107 28.8372C33.8001 28.9729 34.6918 28.9818 35.5278 28.5949C36.0837 28.3369 36.5106 27.97 36.544 27.2674C36.5751 26.587 36.2683 26.1267 35.7213 25.8087C34.7807 25.2618 33.709 25.0772 32.6884 24.7548C31.7367 24.4546 30.7628 24.2056 29.8378 23.8387C27.7299 23.0004 26.6425 21.4662 26.6425 19.1359C26.6425 16.7656 27.6498 14.9934 29.7866 14.0929C33.2843 12.6164 36.5907 13.3324 39.6903 15.3692C40.1039 15.6427 40.1461 15.9006 39.8415 16.2586C39.7948 16.3142 39.757 16.3787 39.7148 16.4409C39.21 17.1725 38.8587 18.1664 38.1627 18.5689C37.3511 19.0381 36.6685 17.9441 35.868 17.6595C34.7674 17.2659 33.6756 16.9746 32.5083 17.1147C31.6811 17.2125 31.0007 17.5616 30.8228 18.4644C30.6472 19.3538 31.1764 19.8341 31.899 20.1876C33.0753 20.7613 34.3738 20.937 35.6034 21.3394C35.9903 21.4662 36.3861 21.5662 36.7641 21.7152C39.8927 22.9537 41.1445 24.8726 40.6753 27.6988Z" fill="white"/>
<path id="Vector_2" d="M113.474 13.3479C124.14 13.3146 134.806 13.3279 145.47 13.3279C156.099 13.3279 166.728 13.319 177.356 13.3457C178.239 13.3479 178.564 13.1723 178.548 12.205C178.488 8.50284 178.51 4.79841 178.537 1.09621C178.541 0.35132 178.441 0 177.532 0C156.126 0.0289061 134.72 0.0266826 113.314 0.00667064C112.555 0.00667064 112.306 0.180107 112.315 0.97836C112.36 4.71837 112.371 8.46059 112.313 12.1984C112.3 13.1345 112.562 13.3524 113.474 13.3479Z" fill="white"/>
<path id="Vector_3" d="M178.542 35.618C178.549 34.8242 178.371 34.5195 177.502 34.5195C162.719 34.5462 147.937 34.5462 133.153 34.5218C132.317 34.5195 132.09 34.7441 132.101 35.5779C132.146 39.2824 132.164 42.989 132.095 46.6912C132.075 47.7163 132.413 47.8742 133.335 47.8697C140.633 47.8319 147.933 47.8497 155.231 47.8497C155.231 47.8519 155.231 47.8519 155.231 47.8541C162.604 47.8541 169.977 47.8408 177.348 47.8719C178.224 47.8764 178.564 47.7118 178.549 46.7335C178.489 43.0268 178.507 39.3224 178.542 35.618Z" fill="white"/>
<path id="Vector_4" d="M143.119 30.5712C148.824 30.5356 154.528 30.5512 160.233 30.5534C165.975 30.5534 171.718 30.5467 177.459 30.5645C178.137 30.5668 178.549 30.5334 178.538 29.6551C178.493 25.8395 178.498 22.0239 178.533 18.2083C178.54 17.4478 178.269 17.2966 177.568 17.2989C166.048 17.3166 154.526 17.3166 143.005 17.2989C142.309 17.2966 142.045 17.4523 142.051 18.2105C142.089 21.9883 142.094 25.7683 142.047 29.5461C142.04 30.4 142.309 30.5779 143.119 30.5712Z" fill="white"/>
<path id="Vector_5" d="M58.6433 11.7976C59.2814 11.7887 59.7039 11.7598 59.9329 10.9749C60.4177 9.30942 61.0625 7.6929 61.7118 5.85402C62.39 7.7974 63.0148 9.49175 63.5618 11.2128C63.753 11.8154 64.1355 11.802 64.5846 11.7731C65.0271 11.7464 65.543 11.971 65.7698 11.2928C66.7437 8.36441 67.7465 5.44712 68.7449 2.50981C66.6192 2.22742 66.6214 2.22742 66.0344 4.13522C65.6141 5.50048 65.1872 6.86129 64.6669 8.52895C64.0176 6.53443 63.4439 4.90012 62.9614 3.23691C62.748 2.50092 62.3922 2.2919 61.6362 2.28523C60.8313 2.27856 60.6778 2.70993 60.4911 3.31251C59.9796 4.95794 59.4193 6.59002 58.7834 8.51561C58.2386 6.75011 57.6827 5.26478 57.3403 3.73276C57.089 2.60542 56.5687 2.23187 55.4592 2.3764C54.8788 2.452 54.5942 2.39641 54.8744 3.16353C55.8216 5.76064 56.6999 8.3822 57.5404 11.0171C57.745 11.653 58.0385 11.8065 58.6433 11.7976Z" fill="white"/>
<path id="Vector_6" d="M68.3014 23.7938C69.4021 25.2369 70.5316 26.6577 71.5834 28.1364C72.1215 28.8902 72.8463 28.7101 73.4845 28.5945C74.0893 28.4833 73.7691 27.8407 73.7736 27.4493C73.8047 25.0034 73.7424 22.5575 73.8114 20.1138C73.838 19.1977 73.3222 19.3067 72.7774 19.3223C72.2282 19.3378 71.5878 19.1133 71.6567 20.145C71.7546 21.5747 71.6812 23.0178 71.6812 24.8055C71.3477 24.4008 71.2343 24.2719 71.1298 24.134C70.0513 22.7221 68.9507 21.3235 67.9034 19.887C67.3208 19.0888 66.5092 19.24 65.7888 19.3779C65.1129 19.509 65.5042 20.1917 65.4953 20.6008C65.4553 23.0089 65.5264 25.4192 65.4553 27.8251C65.4241 28.839 66.0334 28.6211 66.596 28.6589C67.223 28.7012 67.6432 28.65 67.601 27.8006C67.5276 26.2708 67.581 24.7344 67.581 22.9022C67.9501 23.358 68.1324 23.5715 68.3014 23.7938Z" fill="white"/>
<path id="Vector_7" d="M83.2992 37.4241C83.3037 36.7437 83.4415 36.1411 82.3386 36.1834C81.4114 36.219 81.1401 36.4613 81.1957 37.3752C81.2758 38.716 81.2157 40.0679 81.2157 41.422C80.791 41.3976 80.7199 41.1574 80.5954 40.9929C79.5147 39.5832 78.4052 38.1912 77.3801 36.7393C76.8087 35.9299 76.0304 36.1923 75.3634 36.2745C74.6719 36.359 75.0321 37.0683 75.0254 37.4819C74.9898 39.89 75.0476 42.2981 74.9854 44.704C74.9609 45.669 75.5124 45.5356 76.1127 45.5601C76.7575 45.5868 77.1533 45.5178 77.1178 44.6907C77.0533 43.1631 77.1 41.6311 77.1 39.7766C77.4113 40.1769 77.518 40.3125 77.6225 40.4481C78.7676 41.949 79.9572 43.4188 81.0379 44.9664C81.5671 45.7224 82.263 45.6201 82.9168 45.5134C83.6327 45.3978 83.2681 44.7196 83.2748 44.3104C83.3148 42.018 83.2881 39.721 83.2992 37.4241Z" fill="white"/>
<path id="Vector_8" d="M73.7671 11.8611C76.5976 11.8967 78.8012 9.84656 78.8634 7.12049C78.9257 4.38775 76.7711 2.24425 73.9427 2.22869C71.0766 2.21313 68.9509 4.24767 68.9375 7.02043C68.9242 9.77763 70.9676 11.8255 73.7671 11.8611ZM73.8138 4.18096C75.3725 4.15428 76.611 5.38168 76.6466 6.98708C76.6821 8.57914 75.4592 9.91549 73.945 9.93995C72.4063 9.96441 71.17 8.71478 71.1455 7.10493C71.1233 5.41281 72.2217 4.20765 73.8138 4.18096Z" fill="white"/>
<path id="Vector_9" d="M80.92 11.7469C81.9317 11.8158 82.3564 11.5134 82.1874 10.4773C82.134 10.1526 82.203 9.81243 82.1829 9.4789C82.1563 8.98082 82.3341 8.80739 82.8678 8.74068C83.9796 8.60505 84.2864 9.46778 84.6155 10.1348C85.3359 11.5957 86.401 12.0716 88.082 11.5646C87.4928 10.6952 86.9525 9.86135 86.3721 9.05642C86.0697 8.63395 85.9696 8.40493 86.5278 8.04026C87.744 7.24423 88.1443 5.94346 87.7663 4.53818C87.4394 3.33079 86.3943 2.50363 84.9468 2.43693C83.5793 2.37467 82.2074 2.4436 80.8399 2.39246C80.1951 2.368 80.035 2.5859 80.0417 3.2085C80.075 5.76113 80.0795 8.31598 80.0394 10.8708C80.0283 11.5646 80.2574 11.7024 80.92 11.7469ZM82.6099 4.26246C83.9262 3.97562 85.327 4.33139 85.6339 5.02736C85.8607 5.541 85.8162 6.0702 85.3849 6.44598C84.5488 7.1753 83.4415 7.06413 82.4831 7.04856C81.8717 7.03967 82.3186 6.11023 82.1207 5.59881C82.3875 5.1919 81.7271 4.45368 82.6099 4.26246Z" fill="white"/>
<path id="Vector_10" d="M114.309 40.1326C114.051 40.1326 113.787 40.1615 113.533 40.1259C112.808 40.0303 112.49 40.2282 112.493 41.0576C112.495 41.8714 112.777 42.056 113.522 42.0293C113.856 42.0182 114.454 41.6468 114.558 42.4251C114.658 43.1611 114.323 43.4835 113.635 43.6525C112.201 44.0016 110.927 43.5524 110.278 42.3962C109.629 41.2422 109.813 39.7457 110.718 38.7985C111.601 37.8757 113.06 37.6711 114.274 38.5094C115.445 39.3188 115.552 38.1336 115.952 37.6934C116.537 37.0508 115.69 36.9196 115.379 36.7328C113.433 35.561 110.68 35.8968 109.113 37.4443C107.554 38.983 107.218 41.4667 108.31 43.3768C109.377 45.2401 111.688 46.1273 114.009 45.5603C116.161 45.0355 116.562 44.533 116.564 42.3517C116.562 40.1348 116.562 40.1348 114.309 40.1326Z" fill="white"/>
<path id="Vector_11" d="M62.0611 42.8332C61.841 42.5197 61.6453 42.3151 62.1323 41.966C63.5087 40.981 63.9089 39.7469 63.4486 38.3283C63.0039 36.9564 62.01 36.2849 60.2779 36.2404C59.0927 36.2115 57.9053 36.276 56.7224 36.2204C56.0131 36.187 55.7685 36.3783 55.7818 37.1276C55.8285 39.6091 55.8285 42.0928 55.7818 44.5743C55.7685 45.3414 55.9753 45.5548 56.758 45.5837C57.7119 45.6171 58.0098 45.2902 57.8853 44.3941C57.8342 44.0317 57.9009 43.6515 57.872 43.2846C57.8275 42.7554 58.0521 42.622 58.568 42.5619C59.7887 42.4219 60.0889 43.4247 60.4335 44.1384C61.1651 45.6593 62.3235 45.7327 63.8177 45.4437C63.4931 44.9567 63.2174 44.5342 62.935 44.1162C62.6482 43.6871 62.3591 43.2579 62.0611 42.8332ZM60.6203 40.603C60.1911 40.7831 59.7442 40.6986 59.2862 40.7364C58.8503 40.6319 58.121 40.9832 57.9765 40.5363C57.763 39.867 57.9031 39.0821 57.9009 38.3461C57.9009 38.2861 57.9609 38.2149 58.0121 38.1704C58.5124 37.7457 60.9916 38.2082 61.3163 38.7819C61.6987 39.4512 61.3696 40.2895 60.6203 40.603Z" fill="white"/>
<path id="Vector_12" d="M101.203 11.6247C101.347 11.6025 101.494 11.5802 101.638 11.558C103.955 11.2689 105.652 9.31221 105.61 6.98193C105.563 4.54492 103.911 2.76386 101.429 2.47925C101.356 2.4748 101.28 2.47035 101.207 2.46368C100.026 2.44367 98.8433 2.437 97.6626 2.40142C97.2112 2.38808 96.9978 2.49926 97 3.01068C97.02 5.71006 97.0134 8.41167 97.0045 11.1111C97.0022 11.5113 97.1001 11.7492 97.5581 11.7225C98.77 11.6558 99.9907 11.8359 101.203 11.6247ZM99.0012 4.47155C100.295 4.0513 101.565 4.10244 102.588 5.04744C103.479 5.87238 103.582 6.99082 103.199 8.11594C102.652 9.71911 100.011 10.4929 98.9901 9.37224C98.9923 7.73794 98.9968 6.10585 99.0012 4.47155Z" fill="white"/>
<path id="Vector_13" d="M106.346 36.7283C106.341 36.6505 106.335 36.5705 106.33 36.4926C105.716 35.999 105.081 36.1324 104.44 36.4304C104.309 38.078 104.349 39.7257 104.418 41.3733C104.118 41.8514 104.024 41.3689 103.924 41.2399C102.821 39.8213 101.703 38.4138 100.658 36.9529C99.9708 35.9923 99.1681 36.0457 98.2453 36.4548C98.2209 39.3165 98.1964 42.176 98.172 45.0377C98.1697 45.2734 98.212 45.4802 98.5188 45.4758C98.9769 45.5958 99.4349 45.6047 99.8908 45.4713C100.109 45.4669 100.184 45.3512 100.142 45.1467C100.284 43.5302 100.267 41.9136 100.14 40.2971C100.195 40.2438 100.198 40.1882 100.149 40.1281C100.569 39.9369 100.638 40.3305 100.796 40.5373C101.836 41.8847 102.921 43.2033 103.884 44.6041C104.473 45.4646 105.138 45.7804 106.114 45.4624C106.323 45.4602 106.377 45.3423 106.343 45.1578C106.464 42.3495 106.461 39.5389 106.346 36.7283Z" fill="white"/>
<path id="Vector_14" d="M90.1442 39.5699C91.207 38.5649 92.1765 37.4598 93.2327 36.3435C91.6895 36.0189 90.4666 36.1434 89.5461 37.5109C88.9946 38.3292 88.2008 38.9851 87.5337 39.7278C87.347 39.9346 87.2113 40.0079 87.029 39.7545C87.1113 38.6605 87.1446 37.5643 87.0134 36.4703C86.8089 35.9566 86.3797 36.2991 86.0618 36.2324C85.1901 36.05 84.9322 36.4236 84.9544 37.3041C85.0145 39.7478 85.0167 42.1959 84.9566 44.6396C84.9344 45.5223 85.3435 45.5935 86.0217 45.5668C86.631 45.5446 87.2425 45.6424 87.1291 44.6907C87.0646 44.1437 87.1135 43.5812 87.1157 43.0253C87.1179 42.4138 87.5916 42.0558 88.0118 41.8579C88.4098 41.6712 88.5254 42.276 88.7433 42.5361C89.1725 43.0453 89.6261 43.5634 89.9129 44.1526C90.6578 45.6913 91.9008 45.7225 93.4373 45.4512C92.2766 43.8791 91.1981 42.3827 90.0775 40.9218C89.6906 40.4104 89.6039 40.0791 90.1442 39.5699Z" fill="white"/>
<path id="Vector_15" d="M70.3801 36.6259C70.1667 36.1145 69.7976 36.11 69.3951 36.1567C68.9237 36.2123 68.3322 35.9055 68.0432 36.5881C66.798 39.5299 65.5417 42.4672 64.2031 45.6113C65.1504 45.2977 66.2555 46.176 66.629 44.9086C66.9937 43.6768 67.6696 43.2654 68.877 43.4589C69.3106 43.5278 69.7687 43.5145 70.2067 43.4611C70.8604 43.3833 71.2962 43.5834 71.4074 44.2593C71.6142 45.5134 72.4636 45.6602 73.5109 45.5557C73.9289 45.5156 74.1402 45.4756 73.9267 44.9775C72.7304 42.2026 71.5408 39.4209 70.3801 36.6259ZM68.1077 41.5889C68.2655 40.6327 68.7569 39.8456 69.1705 38.765C69.5997 39.7945 69.9421 40.6149 70.3468 41.5889C69.5174 41.5889 68.857 41.5889 68.1077 41.5889Z" fill="white"/>
<path id="Vector_16" d="M63.306 19.322C62.6656 19.4376 61.7428 19.0107 61.8162 20.3181C61.8985 21.7946 61.8629 23.2777 61.8273 24.7585C61.7895 26.2728 60.7178 27.1044 59.3103 26.7331C58.2252 26.4462 57.925 25.5768 57.8983 24.6029C57.8583 23.1242 57.8538 21.6411 57.8916 20.1625C57.9116 19.3909 57.4781 19.3353 56.9022 19.3487C56.3352 19.362 55.7548 19.2753 55.7993 20.158C55.8415 20.9696 55.8082 21.7857 55.8082 22.5995C55.8193 22.5995 55.8326 22.5995 55.8437 22.5995C55.8437 23.5245 55.7882 24.4539 55.8571 25.3722C55.9483 26.5685 56.4441 27.5802 57.5314 28.2117C60.5354 29.955 63.8708 28.1161 63.9286 24.6718C63.953 23.1909 63.9464 21.7101 63.9241 20.2314C63.9241 19.8223 64.1954 19.1597 63.306 19.322Z" fill="white"/>
<path id="Vector_17" d="M110.853 28.6543C112.325 28.3697 113.163 27.4847 113.268 26.1617C113.386 24.6786 112.794 23.8203 111.236 23.28C110.504 23.0265 109.744 22.8486 109.012 22.5929C108.661 22.4706 108.321 22.2394 108.372 21.7947C108.427 21.3166 108.805 21.1276 109.23 21.0676C109.999 20.9609 110.695 21.2166 111.336 21.6035C111.731 21.8436 111.976 21.9325 112.314 21.4567C113.117 20.3249 113.101 20.1559 111.803 19.6067C111.149 19.331 110.462 19.202 109.893 19.1665C109.57 19.1665 109.386 19.1553 109.201 19.1687C107.58 19.2932 106.486 20.2048 106.313 21.5701C106.106 23.1955 106.72 24.0649 108.496 24.6386C109.128 24.8432 109.775 25.001 110.406 25.2101C110.847 25.3546 111.262 25.5969 111.171 26.1462C111.084 26.6731 110.629 26.7999 110.168 26.8488C109.239 26.9489 108.398 26.6643 107.665 26.1306C106.668 25.4057 106.633 26.5464 106.215 26.8666C105.626 27.318 106.244 27.5537 106.522 27.736C107.84 28.6032 109.288 28.9567 110.853 28.6543Z" fill="white"/>
<path id="Vector_18" d="M89.4105 28.5849C91.2627 28.5672 93.1172 28.5405 94.9672 28.5961C95.7009 28.6183 95.8143 28.347 95.8121 27.7022C95.8099 27.0285 95.7098 26.6838 94.9071 26.735C93.7642 26.8083 92.608 26.706 91.4628 26.7639C90.5845 26.8083 90.778 26.2391 90.7469 25.7455C90.7091 25.1963 90.7713 24.8205 91.4917 24.8605C92.4901 24.9161 93.4929 24.8605 94.4913 24.8827C94.9694 24.8939 95.105 24.7204 95.1361 24.2379C95.1917 23.3729 95.1095 22.8037 93.9932 22.9683C93.2684 23.075 92.5124 22.9505 91.7741 22.9972C91.0693 23.0439 90.718 22.926 90.7202 22.0677C90.7224 21.2005 91.0937 21.1205 91.7897 21.1516C92.8615 21.1983 93.9376 21.1761 95.0138 21.1561C95.2273 21.1516 95.5564 21.3362 95.6409 20.927C95.4919 20.3801 96.2835 19.3906 95.1206 19.3372C93.0749 19.2438 91.0204 19.3394 88.9702 19.3572C88.7768 19.3239 88.6967 19.3972 88.7434 19.5951C88.7457 19.8175 88.7479 20.0399 88.7501 20.2622C88.7346 22.8171 88.7345 25.3719 88.6879 27.9268C88.6767 28.5205 88.928 28.5894 89.4105 28.5849ZM95.4163 19.8197C95.443 19.9843 95.4185 20.1577 95.4141 20.3267C95.4208 20.1577 95.4452 19.982 95.4163 19.8197ZM89.4305 19.8019C89.3994 19.8775 89.3616 19.942 89.3171 19.9998C89.3616 19.9442 89.3994 19.8775 89.4305 19.8019Z" fill="white"/>
<path id="Vector_19" d="M122.745 40.1698C122.118 39.9541 121.462 39.8207 120.835 39.6072C120.374 39.4515 119.865 39.227 120.005 38.6177C120.134 38.0552 120.67 37.9373 121.161 37.9551C121.873 37.9796 122.502 38.2931 123.14 38.6088C123.999 39.0335 123.956 38.0374 124.346 37.7172C124.706 37.4192 124.539 37.168 124.185 36.9545C122.709 36.0651 121.153 35.7493 119.523 36.4231C118.433 36.8722 117.906 37.7416 117.882 38.9512C117.857 40.1631 118.451 40.9191 119.509 41.3349C120.263 41.6306 121.061 41.8107 121.831 42.0687C122.318 42.2332 122.911 42.3889 122.771 43.0826C122.629 43.7763 122.002 43.8164 121.446 43.8141C120.608 43.8097 119.885 43.445 119.185 43.0026C118.202 42.3822 118.197 43.5451 117.773 43.8786C117.27 44.2722 117.871 44.4768 118.122 44.6524C119.087 45.3284 120.17 45.6641 121.637 45.6619C121.571 45.6664 121.793 45.653 122.013 45.6352C123.663 45.4996 124.679 44.6324 124.866 43.2027C125.061 41.6551 124.446 40.7568 122.745 40.1698Z" fill="white"/>
<path id="Vector_20" d="M87.4055 19.3607C86.6562 18.996 85.4711 19.4607 85.1776 20.2456C84.5372 21.9689 83.8968 23.6944 83.1475 25.7089C82.3359 23.5298 81.6466 21.6576 80.9372 19.792C80.7705 19.354 79.4497 19.0605 78.9005 19.3518C78.5158 19.5563 78.6915 19.9321 78.7982 20.1989C79.8566 22.8828 80.9506 25.5532 82.0045 28.2371C82.2091 28.7596 82.5938 28.7329 82.9963 28.6996C83.441 28.664 83.9768 28.9041 84.2325 28.2615C85.3243 25.5088 86.4316 22.7649 87.5301 20.0144C87.6212 19.7854 87.7613 19.5341 87.4055 19.3607Z" fill="white"/>
<path id="Vector_21" d="M132.845 22.7627C133.483 21.9556 133.968 21.0283 134.537 20.1656C134.728 19.8765 134.904 19.5675 134.563 19.334C134.092 19.0116 132.569 19.4696 132.251 19.9833C131.671 20.9216 131.097 21.8644 130.441 22.9339C129.914 22.0578 129.403 21.4019 129.102 20.6614C128.642 19.5252 127.893 19.1806 126.721 19.3229C126.083 19.4007 125.889 19.4941 126.279 20.0856C126.848 20.9483 127.332 21.8733 127.96 22.6915C129.065 24.128 129.661 25.6778 129.385 27.5055C129.247 28.4283 129.723 28.5617 130.541 28.6195C131.562 28.6929 131.542 28.1326 131.457 27.4811C131.226 25.6978 131.735 24.1658 132.845 22.7627Z" fill="white"/>
<path id="Vector_22" d="M116.707 19.9712C116.718 18.9684 115.978 19.3597 115.548 19.3286C115.139 19.2997 114.479 19.0373 114.535 19.9801C114.61 21.2698 114.552 22.5661 114.555 23.8602C114.555 25.2277 114.599 26.5974 114.539 27.9626C114.499 28.8698 115.097 28.6564 115.564 28.6364C116.04 28.6163 116.723 28.9454 116.709 27.9537C116.671 25.2921 116.676 22.6328 116.707 19.9712Z" fill="white"/>
<path id="Vector_23" d="M76.6239 19.3092C76.1259 19.3604 75.3743 18.9779 75.4299 20.0519C75.4944 21.306 75.4455 22.5667 75.4455 23.823C75.4455 25.1549 75.501 26.4891 75.4254 27.8165C75.3765 28.6815 75.8368 28.7082 76.4438 28.6526C76.9664 28.6037 77.6423 28.9328 77.6156 27.8743C77.5534 25.2506 77.5689 22.6223 77.6201 19.9985C77.6379 19.1202 77.122 19.2581 76.6239 19.3092Z" fill="white"/>
<path id="Vector_24" d="M96.2652 36.3116C95.6848 36.1871 94.9711 35.9202 94.4196 36.5117C94.4019 39.3312 94.3841 42.1506 94.3707 44.9701C94.3685 45.2124 94.3129 45.526 94.7376 45.4659C96.4631 45.6727 96.4631 45.6727 96.4631 44.0295C96.4631 41.8238 96.472 39.618 96.4542 37.4122C96.452 37.0298 96.6632 36.3983 96.2652 36.3116Z" fill="white"/>
<path id="Vector_25" d="M89.3395 11.0383C89.3395 11.2718 89.2394 11.5853 89.633 11.6431C91.5475 11.6721 93.462 11.6809 95.3764 11.7365C96.1814 11.761 96.0301 11.2184 96.019 10.7671C96.0079 10.3335 96.2214 9.75758 95.392 9.79093C94.3603 9.83096 93.3241 9.76203 92.2924 9.81317C91.6186 9.84652 91.3918 9.64863 91.4141 8.94821C91.4652 7.25164 91.4319 5.55285 91.4296 3.85629C91.4296 2.35762 91.4274 2.35539 89.9665 2.40431C89.8576 2.40876 89.7509 2.44433 89.6441 2.46435C89.2283 2.49325 89.3439 2.81789 89.3417 3.04692C89.3328 5.71072 89.3328 8.37453 89.3395 11.0383Z" fill="white"/>
<path id="Vector_26" d="M117.935 19.3195C117.768 19.3173 117.673 19.4151 117.681 19.5952C117.572 21.2251 117.572 21.2251 119.131 21.2251C119.242 21.2251 119.356 21.2384 119.462 21.2228C120.239 21.1072 120.479 21.4363 120.459 22.2101C120.407 24.0556 120.501 25.9056 120.421 27.7512C120.381 28.665 120.832 28.6717 121.484 28.6584C122.086 28.645 122.624 28.7607 122.578 27.8001C122.493 26.1413 122.553 24.4759 122.553 22.8127C122.553 21.2273 122.553 21.2273 124.094 21.2251C125.584 21.2228 125.722 21.0005 125.215 19.3929C122.789 19.2083 120.361 19.3528 117.935 19.3195Z" fill="white"/>
<path id="Vector_27" d="M99.2495 26.9387C99.2495 26.5696 99.2339 26.1982 99.2272 25.8291C100.188 25.4156 100.868 25.6379 101.429 26.5785C102.069 27.6502 102.611 28.9488 104.319 28.5908C104.859 28.4774 105.106 28.384 104.737 27.8437C104.277 27.1744 103.832 26.494 103.354 25.8358C103.118 25.5089 103.096 25.34 103.47 25.0531C104.873 23.9725 105.278 22.6673 104.753 21.193C104.315 19.9634 103.127 19.3052 101.435 19.3542C100.541 19.3542 99.6453 19.3542 98.7514 19.3542C98.6091 19.3542 98.4646 19.3542 98.3223 19.3564C98.0243 19.3631 97.7241 19.3675 97.4262 19.3742C97.0993 19.432 97.1838 19.6944 97.1838 19.8945C97.1794 22.5894 97.1794 25.2866 97.1838 27.9815C97.1838 28.1794 97.0904 28.444 97.4262 28.4952C99.2495 28.6642 99.2517 28.6642 99.2495 26.9387ZM99.4029 21.2931C99.7765 20.6594 102.529 21.3109 102.743 22.0447C102.967 22.8207 102.723 23.4566 101.9 23.6968C101.449 23.8279 100.955 23.8168 100.526 23.8635C100.086 23.7101 99.434 24.1059 99.3162 23.5478C99.1605 22.8185 99.0116 21.9557 99.4029 21.2931Z" fill="white"/>
</g>
</svg>
